<svg width="19" height="23" viewBox="0 0 19 23" fill="none" xmlns="http://www.w3.org/2000/svg">
<path d="M0.9 11.977V11.9773V19.333C0.899992 20.17 1.2315 20.9729 1.822 21.566C2.4125 22.1591 3.21389 22.4942 4.05084 22.4979H4.05128H14.9487L14.9492 22.4979C15.7861 22.4942 16.5875 22.1591 17.178 21.566C17.7685 20.9729 18.1 20.17 18.1 19.333V11.9773V11.977C18.0984 11.3294 17.8983 10.6979 17.5265 10.1677C17.1682 9.65666 16.6671 9.2634 16.0867 9.03668V7.38774C16.1045 6.51193 15.9475 5.64137 15.6247 4.827C15.3018 4.01231 14.8196 3.27024 14.2063 2.64426C13.5931 2.01828 12.861 1.52097 12.0531 1.18147C11.2452 0.841963 10.3777 0.66709 9.50136 0.66709C8.62503 0.66709 7.7575 0.841963 6.9496 1.18147C6.1417 1.52097 5.40967 2.01828 4.79638 2.64426C4.1831 3.27024 3.7009 4.01231 3.37802 4.827C3.05527 5.64137 2.89821 6.51193 2.91603 7.38774V9.03662C2.33513 9.26291 1.83346 9.65598 1.47464 10.1671C1.10235 10.6973 0.90177 11.3291 0.9 11.977ZM3.91971 7.48672H3.93283L3.93059 7.38453C3.91433 6.64305 4.04633 5.90579 4.31885 5.21601C4.59136 4.52624 4.99891 3.89784 5.51756 3.36769C6.03621 2.83755 6.65552 2.41633 7.33916 2.12876C8.02279 1.84119 8.75698 1.69305 9.49864 1.69305C10.2403 1.69305 10.9745 1.84119 11.6581 2.12876C12.3418 2.41633 12.9611 2.83755 13.4797 3.36769C13.9984 3.89784 14.4059 4.52624 14.6784 5.21601C14.9509 5.90579 15.083 6.64305 15.0667 7.38453L15.0667 7.38453V7.38672V8.82326H15.0663H15.0659H15.0654H15.065H15.0645H15.0641H15.0636H15.0632H15.0627H15.0623H15.0618H15.0614H15.0609H15.0605H15.06H15.0596H15.0591H15.0587H15.0582H15.0578H15.0573H15.0569H15.0564H15.056H15.0555H15.0551H15.0546H15.0542H15.0537H15.0533H15.0528H15.0524H15.0519H15.0515H15.051H15.0506H15.0501H15.0496H15.0492H15.0487H15.0483H15.0478H15.0474H15.0469H15.0465H15.046H15.0456H15.0451H15.0447H15.0442H15.0438H15.0433H15.0429H15.0424H15.042H15.0415H15.0411H15.0406H15.0402H15.0397H15.0393H15.0388H15.0384H15.0379H15.0375H15.037H15.0366H15.0361H15.0356H15.0352H15.0347H15.0343H15.0338H15.0334H15.0329H15.0325H15.032H15.0316H15.0311H15.0307H15.0302H15.0298H15.0293H15.0289H15.0284H15.028H15.0275H15.0271H15.0266H15.0261H15.0257H15.0252H15.0248H15.0243H15.0239H15.0234H15.023H15.0225H15.0221H15.0216H15.0212H15.0207H15.0203H15.0198H15.0193H15.0189H15.0184H15.018H15.0175H15.0171H15.0166H15.0162H15.0157H15.0153H15.0148H15.0144H15.0139H15.0134H15.013H15.0125H15.0121H15.0116H15.0112H15.0107H15.0103H15.0098H15.0094H15.0089H15.0084H15.008H15.0075H15.0071H15.0066H15.0062H15.0057H15.0053H15.0048H15.0044H15.0039H15.0034H15.003H15.0025H15.0021H15.0016H15.0012H15.0007H15.0003H14.9998H14.9994H14.9989H14.9984H14.998H14.9975H14.9971H14.9966H14.9962H14.9957H14.9953H14.9948H14.9943H14.9939H14.9934H14.993H14.9925H14.9921H14.9916H14.9911H14.9907H14.9902H14.9898H14.9893H14.9889H14.9884H14.988H14.9875H14.987H14.9866H14.9861H14.9857H14.9852H14.9848H14.9843H14.9838H14.9834H14.9829H14.9825H14.982H14.9816H14.9811H14.9806H14.9802H14.9797H14.9793H14.9788H14.9784H14.9779H14.9774H14.977H14.9765H14.9761H14.9756H14.9751H14.9747H14.9742H14.9738H14.9733H14.9729H14.9724H14.9719H14.9715H14.971H14.9706H14.9701H14.9696H14.9692H14.9687H14.9683H14.9678H14.9674H14.9669H14.9664H14.966H14.9655H14.9651H14.9646H14.9641H14.9637H14.9632H14.9628H14.9623H14.9618H14.9614H14.9609H14.9605H14.96H14.9595H14.9591H14.9586H14.9582H14.9577H14.9572H14.9568H14.9563H14.9559H14.9554H14.9549H14.9545H14.954H14.9536H14.9531H14.9526H14.9522H14.9517H14.9513H14.9508H14.9503H14.9499H14.9494H14.949H14.9485H14.948H14.9476H14.9471H14.9466H14.9462H14.9457H14.9453H14.9448H14.9443H14.9439H14.9434H14.943H14.9425H14.942H14.9416H14.9411H14.9406H14.9402H14.9397H14.9393H14.9388H14.9383H14.9379H14.9374H14.9369H14.9365H14.936H14.9356H14.9351H4.05128H4.05082H4.05036H4.04989H4.04943H4.04897H4.04851H4.04804H4.04758H4.04712H4.04666H4.04619H4.04573H4.04527H4.04481H4.04435H4.04388H4.04342H4.04296H4.0425H4.04204H4.04157H4.04111H4.04065H4.04019H4.03973H4.03927H4.03881H4.03834H4.03788H4.03742H4.03696H4.0365H4.03604H4.03558H4.03512H4.03466H4.0342H4.03374H4.03327H4.03281H4.03235H4.03189H4.03143H4.03097H4.03051H4.03005H4.02959H4.02913H4.02867H4.02821H4.02775H4.02729H4.02683H4.02637H4.02591H4.02545H4.02499H4.02453H4.02407H4.02361H4.02316H4.0227H4.02224H4.02178H4.02132H4.02086H4.0204H4.01994H4.01948H4.01902H4.01856H4.01811H4.01765H4.01719H4.01673H4.01627H4.01581H4.01535H4.0149H4.01444H4.01398H4.01352H4.01306H4.0126H4.01215H4.01169H4.01123H4.01077H4.01031H4.00986H4.0094H4.00894H4.00848H4.00803H4.00757H4.00711H4.00665H4.0062H4.00574H4.00528H4.00482H4.00437H4.00391H4.00345H4.003H4.00254H4.00208H4.00162H4.00117H4.00071H4.00025H3.9998H3.99934H3.99888H3.99843H3.99797H3.99751H3.99706H3.9966H3.99615H3.99569H3.99523H3.99478H3.99432H3.99386H3.99341H3.99295H3.9925H3.99204H3.99158H3.99113H3.99067H3.99022H3.98976H3.98931H3.98885H3.98839H3.98794H3.98748H3.98703H3.98657H3.98612H3.98566H3.98521H3.98475H3.9843H3.98384H3.98339H3.98293H3.98248H3.98202H3.98157H3.98111H3.98066H3.9802H3.97975H3.97929H3.97884H3.97838H3.97793H3.97747H3.97702H3.97657H3.97611H3.97566H3.9752H3.97475H3.97429H3.97384H3.97339H3.97293H3.97248H3.97202H3.97157H3.97112H3.97066H3.97021H3.96975H3.9693H3.96885H3.96839H3.96794H3.96749H3.96703H3.96658H3.96613H3.96567H3.96522H3.96477H3.96431H3.96386H3.96341H3.96295H3.9625H3.96205H3.96159H3.96114H3.96069H3.96023H3.95978H3.95933H3.95888H3.95842H3.95797H3.95752H3.95706H3.95661H3.95616H3.95571H3.95525H3.9548H3.95435H3.9539H3.95344H3.95299H3.95254H3.95209H3.95164H3.95118H3.95073H3.95028H3.94983H3.94937H3.94892H3.94847H3.94802H3.94757H3.94711H3.94666H3.94621H3.94576H3.94531H3.94486H3.9444H3.94395H3.9435H3.94305H3.9426H3.94215H3.94169H3.94124H3.94079H3.94034H3.93989H3.93944H3.93899H3.93854H3.93808H3.93763H3.93718H3.93673H3.93628H3.93583H3.93538H3.93493H3.93448H3.93402H3.93357H3.93312H3.93267H3.93222H3.93177H3.93132H3.93087H3.93042H3.92997H3.92952H3.92907H3.92862H3.92817H3.92771H3.92726H3.92681H3.92636H3.92591H3.92546H3.92501H3.92456H3.92411H3.92366H3.92321H3.92276H3.92231H3.92186H3.92141H3.92096H3.92051H3.92006H3.91971V7.48672ZM17.0936 11.9856V19.1646L17.08 19.1564L17.08 19.333C17.08 19.8999 16.8559 20.4438 16.4565 20.8461C16.0572 21.2483 15.5152 21.4764 14.9485 21.4806H4.0514C3.48273 21.4799 2.93754 21.2537 2.53543 20.8516C2.13333 20.4495 1.90712 19.9044 1.90641 19.3357V11.9802C1.90852 11.4125 2.13533 10.8687 2.53726 10.4677C2.93922 10.0667 3.48363 9.84125 4.0514 9.84056H14.9486C15.5173 9.84125 16.0625 10.0675 16.4646 10.4696C16.8667 10.8717 17.0929 11.4169 17.0936 11.9856Z" fill="white" stroke="white" stroke-width="0.2"/>
</svg>
