<svg width="27" height="16" viewBox="0 0 27 16" fill="none" xmlns="http://www.w3.org/2000/svg">
<path fill-rule="evenodd" clip-rule="evenodd" d="M17.104 0.00805664C17.8951 0.00805664 18.5495 0.610566 18.6644 1.37681H21.4384C21.9732 1.37681 22.3419 1.69416 22.6703 2.04293C22.9986 2.39171 23.2999 2.83052 23.5828 3.30218C24.1193 4.19681 24.5844 5.19751 24.915 5.86631H25.2161C25.8894 5.86631 26.448 6.43643 26.448 7.10731V11.6516C26.448 12.3224 25.9021 12.9017 25.2161 12.9017H23.236C22.9664 14.2032 21.8165 15.1921 20.4346 15.1921C19.0528 15.1921 17.9029 14.2032 17.6333 12.9017H9.88614C9.61429 14.2049 8.45748 15.1921 7.07563 15.1921C5.70133 15.1921 4.54545 14.2048 4.27426 12.9017H2.33064C1.45132 12.9017 0.752014 12.1661 0.752014 11.2957V1.61406C0.752014 0.738407 1.4595 0.00805664 2.33064 0.00805664H17.104ZM17.104 1.17606H2.33064C2.09787 1.17606 1.92002 1.35264 1.92002 1.61406V11.2957C1.92002 11.5391 2.10606 11.7337 2.33064 11.7337H4.27426C4.53864 10.4219 5.69514 9.41591 7.07563 9.41591C8.46361 9.41591 9.61188 10.423 9.87701 11.7337H17.5146V1.61406C17.5146 1.35264 17.3368 1.17606 17.104 1.17606ZM21.4384 2.54481H18.6826V5.86631H23.6193C23.313 5.2409 22.9618 4.54271 22.579 3.90443C22.32 3.47254 22.0514 3.08997 21.8216 2.84591C21.5919 2.60187 21.4211 2.54481 21.4384 2.54481ZM25.2161 7.03431H18.6826V10.0273C19.1662 9.64686 19.7743 9.41591 20.4346 9.41591C22.1046 9.47469 23.0498 10.5048 23.236 11.7337H25.2161C25.2431 11.7337 25.28 11.7001 25.28 11.6516V7.10731C25.28 7.05881 25.2558 7.03431 25.2161 7.03431ZM20.4346 10.5839C19.4876 10.5839 18.7374 11.3501 18.7374 12.3177C18.7374 13.2708 19.4876 14.0241 20.4346 14.0241C21.3817 14.0241 22.1319 13.2708 22.1319 12.3177C22.1373 11.2698 21.3937 10.6296 20.4346 10.5839ZM7.07563 10.5839C6.14296 10.5839 5.37839 11.3498 5.37839 12.2994V12.3175C5.37839 13.2672 6.14296 14.0239 7.07563 14.0239C8.02272 14.0239 8.77289 13.2672 8.77289 12.3175C8.79193 11.4703 8.14339 10.6187 7.07563 10.5838V10.5839Z" fill="white"/>
</svg>
