<svg width="19" height="21" viewBox="0 0 19 21" fill="none" xmlns="http://www.w3.org/2000/svg">
<path d="M5.84552 8.94455C6.81282 8.67557 7.61636 8.05107 8.10892 7.17844C8.60148 6.30581 8.73033 5.29646 8.46134 4.32917C8.19236 3.36187 7.56787 2.55833 6.69524 2.06577C6.57591 1.99493 6.45148 1.93709 6.32761 1.88548C5.54423 1.54805 4.67911 1.48781 3.84596 1.71335C2.87867 1.98233 2.07513 2.60682 1.58257 3.47945C1.09001 4.35208 0.961162 5.36143 1.23014 6.32873C1.78616 8.32444 3.85547 9.49378 5.84552 8.94455ZM2.6735 4.09671C3.00395 3.51477 3.53738 3.09655 4.18036 2.91949C4.82333 2.74243 5.50227 2.8257 6.07798 3.1567C6.65992 3.48715 7.07814 4.02058 7.2552 4.66356C7.43226 5.30653 7.34843 5.97924 7.01799 6.56119C6.68754 7.14313 6.15411 7.56134 5.51113 7.7384C4.94174 7.89629 4.35953 7.84198 3.8567 7.62365C3.18419 7.33272 2.64888 6.75334 2.43629 5.99434C2.25923 5.35136 2.34305 4.67865 2.6735 4.09671Z" fill="#FFFFFD"/>
<path d="M17.5303 13.0644C16.091 11.5749 13.7156 11.5375 12.2255 12.9705C11.5034 13.663 11.0985 14.603 11.0817 15.6023C11.0649 16.6016 11.4391 17.5531 12.1316 18.2752C12.8241 18.9974 13.7641 19.4023 14.7634 19.4191C14.9015 19.4192 15.0395 19.4194 15.1702 19.4076C16.0168 19.3315 16.8128 18.9712 17.4301 18.3697C18.9259 16.93 18.9633 14.5546 17.5303 13.0644ZM16.5647 17.4686C16.0855 17.9322 15.4487 18.1777 14.7827 18.1686C14.1167 18.1595 13.4894 17.8833 13.0259 17.4041C12.5624 16.925 12.3106 16.2887 12.326 15.6222C12.3351 14.9562 12.6113 14.3289 13.0904 13.8654C13.518 13.4567 14.0496 13.2269 14.5974 13.1776C15.3257 13.1121 16.0763 13.3646 16.6229 13.9304C17.5845 14.9233 17.5581 16.5133 16.5647 17.4686Z" fill="#FFFFFD"/>
<path d="M17.2685 2.89699C17.0266 2.64891 16.6305 2.64061 16.3824 2.88256L1.99369 16.7711C1.74562 17.013 1.73731 17.4091 1.97926 17.6572C2.11775 17.8016 2.30499 17.8601 2.48551 17.8438C2.62246 17.8315 2.75549 17.7756 2.86536 17.6716L17.2541 3.78309C17.5022 3.54115 17.5042 3.14562 17.2685 2.89699Z" fill="#FFFFFD"/>
</svg>
